<svg data-v-423bf9ae="" xmlns="http://www.w3.org/2000/svg" viewBox="0 0 618 90" class="iconLeft"><!----><!----><!----><g data-v-423bf9ae="" id="1e793907-2fbd-44e8-8d18-bb550e86c4f0" fill="white" transform="matrix(5.494504976266874,0,0,5.494504976266874,64.95426295699014,-8.516483404889556)"><path d="M1.82 5.75L0.98 5.75L0.98 5.19L4.76 5.19L4.76 5.75L3.92 5.75L3.92 10.02L6.90 5.19L9.13 5.19L9.13 5.75L8.36 5.75L4.30 10.30L5.21 10.30Q7 10.30 7.41 11.66L7.41 11.66L7.99 13.62Q8.09 13.97 8.25 14.11Q8.40 14.25 8.76 14.25Q9.13 14.25 9.62 13.85L9.62 13.85L9.87 14.18Q8.75 15.20 7.49 15.20L7.49 15.20Q6.85 15.20 6.45 14.98Q6.06 14.76 5.89 14.20L5.89 14.20L5.07 11.48Q4.96 11.09 4.72 10.93Q4.48 10.78 3.92 10.75L3.92 10.75L3.92 14.43L4.76 14.43L4.76 14.99L0.98 14.99L0.98 14.43L1.82 14.43L1.82 5.75ZM13.43 8.64L13.43 8.64L13.43 13.44Q13.43 13.87 13.69 14.11Q13.96 14.35 14.43 14.35Q14.91 14.35 15.36 13.96Q15.81 13.57 15.81 12.94L15.81 12.94L15.81 7.99L17.91 7.99L17.91 13.44Q17.91 13.82 18.09 14.04Q18.27 14.25 18.65 14.25Q19.03 14.25 19.52 13.85L19.52 13.85L19.77 14.18Q18.65 15.20 17.49 15.20Q16.32 15.20 15.95 14.17L15.95 14.17Q15.40 14.74 14.82 14.97Q14.24 15.20 13.34 15.20Q12.43 15.20 11.88 14.65Q11.33 14.10 11.33 13.15L11.33 13.15L11.33 8.46Q10.56 8.65 10.15 9.14L10.15 9.14L9.77 8.71Q10.18 8.29 10.80 8.04Q11.42 7.78 12.03 7.78Q12.64 7.78 13.03 8.03Q13.43 8.27 13.43 8.64ZM20.10 8.76L19.91 8.25Q20.51 7.99 21.20 7.99Q21.90 7.99 22.35 8.16Q22.81 8.33 23.30 8.69L23.30 8.69Q23.80 8.19 24.32 7.99Q24.85 7.78 25.56 7.78L25.56 7.78Q26.99 7.78 27.47 8.88L27.47 8.88Q28.01 8.27 28.57 8.03Q29.12 7.78 30.01 7.78Q30.90 7.78 31.45 8.34Q32.00 8.89 32.00 9.84L32.00 9.84L32.00 13.44Q32.00 13.82 32.19 14.04Q32.37 14.25 32.75 14.25Q33.12 14.25 33.61 13.85L33.61 13.85L33.87 14.18Q32.75 15.20 31.63 15.20L31.63 15.20Q29.90 15.20 29.90 13.15L29.90 13.15L29.90 9.55Q29.90 9.11 29.65 8.88Q29.40 8.64 28.96 8.64Q28.52 8.64 28.09 9.02Q27.66 9.39 27.66 10.00L27.66 10.00L27.66 14.99L25.56 14.99L25.56 9.55Q25.56 9.11 25.31 8.88Q25.06 8.64 24.62 8.64Q24.18 8.64 23.75 9.02Q23.32 9.39 23.32 10.00L23.32 10.00L23.32 14.99L21.22 14.99L21.22 8.55Q20.59 8.55 20.10 8.76L20.10 8.76ZM37.24 5.14L37.24 5.14L37.24 8.89Q37.98 7.78 39.30 7.78L39.30 7.78Q40.91 7.78 41.75 8.83Q42.59 9.87 42.59 11.49Q42.59 13.10 41.69 14.15Q40.78 15.20 39.16 15.20L39.16 15.20Q37.91 15.20 37.24 14.21L37.24 14.21L37.24 14.99L35.14 14.99L35.14 4.96Q34.37 5.15 33.96 5.64L33.96 5.64L33.59 5.21Q33.99 4.79 34.61 4.54Q35.24 4.28 35.85 4.28Q36.46 4.28 36.85 4.53Q37.24 4.77 37.24 5.14ZM40.03 13.62Q40.42 12.84 40.42 11.49Q40.42 10.15 40.03 9.37Q39.63 8.58 38.83 8.58Q38.02 8.58 37.60 9.37Q37.17 10.16 37.17 11.49Q37.17 12.82 37.60 13.62Q38.02 14.41 38.83 14.41Q39.63 14.41 40.03 13.62ZM47.15 5.14L47.15 5.14L47.15 8.74Q47.64 8.20 48.21 7.99Q48.78 7.78 49.65 7.78Q50.53 7.78 51.08 8.34Q51.63 8.89 51.63 9.84L51.63 9.84L51.63 13.44Q51.63 13.82 51.81 14.04Q52.00 14.25 52.37 14.25Q52.75 14.25 53.24 13.85L53.24 13.85L53.49 14.18Q52.37 15.20 51.25 15.20L51.25 15.20Q49.53 15.20 49.53 13.15L49.53 13.15L49.53 9.55Q49.53 9.11 49.27 8.88Q49 8.64 48.52 8.64Q48.05 8.64 47.60 9.03Q47.15 9.42 47.15 10.05L47.15 10.05L47.15 14.99L45.05 14.99L45.05 4.96Q44.28 5.15 43.88 5.64L43.88 5.64L43.50 5.21Q43.90 4.79 44.53 4.54Q45.15 4.28 45.76 4.28Q46.37 4.28 46.76 4.53Q47.15 4.77 47.15 5.14ZM56.53 5.75L55.58 5.75L55.58 5.19L58.91 5.19L61.70 14.43L62.40 14.43L62.40 14.99L58.79 14.99L58.79 14.43L59.60 14.43L59.08 12.71L55.27 12.71L54.77 14.43L55.58 14.43L55.58 14.99L53.21 14.99L53.21 14.43L53.91 14.43L56.53 5.75ZM58.88 12.08L57.16 6.36L55.47 12.08L58.88 12.08ZM70.88 8.64L70.88 8.64L70.88 13.30Q70.88 13.75 71.16 13.98Q71.44 14.21 71.86 14.21L71.86 14.21Q72.74 14.21 73.39 13.29Q74.03 12.38 74.03 11.05L74.03 11.05Q74.03 10.37 73.77 9.63L73.77 9.63Q73.51 9.80 73.12 9.80Q72.73 9.80 72.41 9.48Q72.10 9.17 72.10 8.72Q72.10 8.27 72.41 7.96Q72.73 7.64 73.21 7.64Q73.68 7.64 74.02 8.00Q74.37 8.36 74.52 8.95L74.52 8.95Q74.77 9.97 74.77 10.95Q74.77 11.93 74.54 12.66Q74.30 13.38 73.92 13.84Q73.54 14.29 73.07 14.62L73.07 14.62Q72.21 15.20 71.36 15.20L71.36 15.20Q69.69 15.20 69.06 14.11L69.06 14.11Q68.60 14.64 67.97 14.92Q67.34 15.20 66.81 15.20L66.81 15.20Q65.62 15.20 64.92 14.61Q64.23 14.01 64.23 12.87L64.23 12.87L64.23 8.46Q63.46 8.65 63.06 9.14L63.06 9.14L62.68 8.71Q63.08 8.29 63.71 8.04Q64.33 7.78 64.94 7.78Q65.55 7.78 65.94 8.03Q66.33 8.27 66.33 8.64L66.33 8.64L66.33 13.30Q66.33 13.75 66.61 13.98Q66.89 14.21 67.31 14.21L67.31 14.21Q68.26 14.21 68.80 13.27L68.80 13.27Q68.78 13.15 68.78 12.87L68.78 12.87L68.78 8.46Q68.01 8.65 67.61 9.14L67.61 9.14L67.23 8.71Q67.63 8.29 68.26 8.04Q68.88 7.78 69.49 7.78Q70.10 7.78 70.49 8.03Q70.88 8.27 70.88 8.64ZM81.87 7.99L83.97 7.99L83.97 13.44Q83.97 13.82 84.15 14.04Q84.34 14.25 84.71 14.25Q85.09 14.25 85.58 13.85L85.58 13.85L85.83 14.18Q84.71 15.20 83.59 15.20L83.59 15.20Q82.26 15.20 81.96 13.96L81.96 13.96Q81.23 15.20 79.81 15.20L79.81 15.20Q78.20 15.20 77.36 14.16Q76.52 13.12 76.52 11.50Q76.52 9.88 77.43 8.83Q78.33 7.78 79.95 7.78L79.95 7.78Q81.20 7.78 81.87 8.78L81.87 8.78L81.87 7.99ZM79.09 9.37Q78.69 10.15 78.69 11.49Q78.69 12.84 79.09 13.62Q79.48 14.41 80.28 14.41Q81.09 14.41 81.52 13.62Q81.94 12.82 81.94 11.49Q81.94 10.16 81.52 9.37Q81.09 8.58 80.28 8.58Q79.48 8.58 79.09 9.37ZM91.06 7.78L91.06 7.78Q91.48 7.78 91.48 8.58L91.48 8.58L91.48 13.44Q91.48 13.82 91.66 14.04Q91.84 14.25 92.22 14.25Q92.60 14.25 93.09 13.85L93.09 13.85L93.34 14.18Q92.22 15.20 91.10 15.20L91.10 15.20Q89.38 15.20 89.38 13.15L89.38 13.15L89.38 9.21Q88.72 9.48 87.78 9.58L87.78 9.58Q87.67 10.86 87.04 12.15L87.04 12.15L86.46 11.98Q86.86 10.99 86.88 9.62L86.88 9.62Q86.35 9.62 86.02 9.31Q85.69 9.00 85.69 8.55Q85.69 8.09 86.01 7.78Q86.32 7.46 86.78 7.46Q87.23 7.46 87.54 7.78Q87.85 8.11 87.85 8.61L87.85 8.61L88.12 8.61Q89.22 8.61 90.47 7.99L90.47 7.99Q90.87 7.78 91.06 7.78ZM96.89 11.76Q97.80 11.68 98.30 11.07Q98.80 10.46 98.80 9.84Q98.80 9.21 98.53 8.88Q98.25 8.54 97.70 8.54Q97.15 8.54 96.64 9.32Q96.14 10.11 96.14 11.42Q96.14 12.74 96.61 13.54Q97.09 14.34 97.97 14.34L97.97 14.34Q99.32 14.34 100.25 13.29L100.25 13.29L100.65 13.54Q100.17 14.29 99.39 14.75Q98.60 15.20 97.62 15.20L97.62 15.20Q95.96 15.20 94.96 14.11Q93.97 13.01 93.97 11.45Q93.97 9.90 95.03 8.84Q96.08 7.78 97.96 7.78L97.96 7.78Q99.19 7.78 99.89 8.36Q100.59 8.93 100.59 9.81Q100.59 10.70 99.81 11.45Q99.04 12.19 97.76 12.19L97.76 12.19Q97.33 12.19 96.92 12.10L96.92 12.10L96.89 11.76Z"></path></g><!----><g data-v-423bf9ae="" id="e8c22992-e739-4e6f-abc8-7e84856a1e29" transform="matrix(3.3100262271585636,0,0,3.3100262271585636,-27.564419726089753,-7.555612459472798)" stroke="none" fill="white"><g color="#000" font-weight="400" font-family="sans-serif" stroke-linecap="round" stroke-linejoin="round"><path style="line-height:normal;text-indent:0;text-align:start;text-decoration-line:none;text-decoration-style:solid;text-decoration-color:#000;text-transform:none;white-space:normal;isolation:auto;mix-blend-mode:normal;solid-color:#000;solid-opacity:1" d="M15.997 2.405c.196.195.39.339.797.998.287.465.574 1.038.789 1.707.094.292.166.61.227.94a8.747 8.747 0 00-1.811 2.279 8.774 8.774 0 00-.27-.463 8.74 8.74 0 00-1.544-1.817c.06-.328.13-.647.224-.94a7.792 7.792 0 01.791-1.706c.408-.66.601-.803.797-.998zM10.89 5.329c3.128 1.097 5.18 3.972 5.197 7.168-.03.079-.062.158-.09.238a8.746 8.746 0 00-5.234-5.295 7.978 7.978 0 01.127-2.113zM21.104 5.372c.126.696.179 1.39.125 2.07a8.75 8.75 0 00-4.306 3.426 8.694 8.694 0 00-.385-1.358c.828-1.914 2.474-3.393 4.566-4.136zM23.604 7.975c-.183 2.305-1.277 4.353-3.044 5.645h-3.793c.828-3.074 3.528-5.366 6.837-5.645z" overflow="visible"></path><path style="line-height:normal;text-indent:0;text-align:start;text-decoration-line:none;text-decoration-style:solid;text-decoration-color:#000;text-transform:none;white-space:normal;isolation:auto;mix-blend-mode:normal;solid-color:#000;solid-opacity:1" d="M8.396 7.99c3.302.283 6.006 2.558 6.833 5.63H11.44c-1.765-1.288-2.855-3.33-3.044-5.63zM11.302 14.62h4.418a.5.5 0 00.279 0 .5.5 0 00.272 0h3.998v.998h-9.002v-.998a.5.5 0 00.035 0zM11.01 16.62h9.512l1.143 1.478c.005.01.009.015.014.022H9.84c.01-.012.016-.025.025-.037zM9.242 19.12a5.421 5.421 0 00-.373 1h13.78a5.466 5.466 0 00-.374-1H9.265zM8.767 21.12h1.5v.5c0 .424-.326.75-.75.75a.738.738 0 01-.75-.75zM11.267 21.12h1.5v.5c0 .424-.326.75-.75.75a.738.738 0 01-.75-.75zM13.767 21.12h1.5v.5c0 .424-.326.75-.75.75a.738.738 0 01-.75-.75zM16.267 21.12h1.502v.5c0 .424-.326.75-.75.75a.74.74 0 01-.752-.75zM18.769 21.12h1.5v.5c0 .424-.326.75-.75.75a.738.738 0 01-.75-.75zM21.269 21.12h1.5v.5c0 .424-.326.75-.75.75a.738.738 0 01-.75-.75zM10.767 22.834c.318.328.76.536 1.25.536.489 0 .93-.208 1.25-.536.318.328.76.536 1.25.536.489 0 .93-.208 1.25-.536.319.328.762.536 1.252.536.489 0 .93-.208 1.25-.536.318.328.76.536 1.25.536.489 0 .93-.208 1.25-.536.318.328.76.536 1.25.536.162 0 .317-.03.466-.072-.046.13-.084.261-.14.388l-2.418 5.471c-2.746.565-5.511.603-8.319 0l-2.431-5.443c-.062-.14-.106-.284-.156-.426.158.048.323.082.496.082.489 0 .93-.208 1.25-.535z" overflow="visible"></path></g></g><!----></svg>